<svg height="512pt" viewBox="-37 0 512 512.001" width="512pt" xmlns="http://www.w3.org/2000/svg"><path d="m375.082031 87.070312c-62.566406-23.660156-102.476562-53.730468-124.9375-74.792968-17.457031-16.371094-44.804687-16.371094-62.261719 0-22.460937 21.0625-62.371093 51.132812-124.9375 74.792968-41.425781 15.664063-67.085937 57.4375-62.394531 101.578126 4.628907 43.566406 13.5625 107.4375 29.832031 164.304687 8.015626 28.011719 23.449219 53.417969 44.632813 73.480469 3.007813 2.847656 7.753906 2.714844 10.601563-.289063 2.847656-3.007812 2.71875-7.757812-.289063-10.605469-19.234375-18.214843-33.25-41.285156-40.523437-66.714843-15.972657-55.832031-24.769532-118.78125-29.335938-161.761719-3.96875-37.355469 17.734375-72.703125 52.785156-85.957031 64.863282-24.53125 106.4375-55.890625 129.890625-77.882813 11.703125-10.976562 30.039063-10.976562 41.742188 0 23.453125 21.992188 65.027343 53.351563 129.890625 77.882813 35.050781 13.25 56.753906 48.601562 52.785156 85.957031-4.566406 42.976562-13.363281 105.929688-29.335938 161.761719-9.808593 34.285156-31.707031 63.890625-61.660156 83.367187-28.320312 18.414063-64.464844 41.773438-89.796875 58.121094-13.824219 8.921875-31.6875 8.921875-45.507812 0-24.257813-15.65625-59.035157-38.128906-86.972657-56.285156-3.472656-2.257813-8.117187-1.269532-10.375 2.203125-2.257812 3.472656-1.269531 8.121093 2.203126 10.378906 27.953124 18.167969 62.746093 40.648437 87.011718 56.308594 9.378906 6.054687 20.132813 9.082031 30.882813 9.082031 10.753906 0 21.507812-3.027344 30.890625-9.082031 25.34375-16.355469 61.5-39.722657 89.839844-58.148438 32.984374-21.449219 57.097656-54.054687 67.902343-91.816406 16.269531-56.867187 25.203125-120.738281 29.832031-164.304687 4.691407-44.140626-20.96875-85.910157-62.394531-101.578126zm0 0"/><path d="m327.4375 126.90625c3.78125 1.691406 8.21875 0 9.910156-3.78125s-.003906-8.21875-3.78125-9.910156c-53.300781-23.851563-88.941406-51.515625-109.457031-70.519532-2.875-2.664062-7.316406-2.664062-10.191406 0-25.003907 23.164063-69.039063 56.160157-136.824219 81.792969-24.417969 9.234375-39.535156 33.878907-36.765625 59.933594 4.460937 41.992187 13.027344 103.414063 28.511719 157.523437 8.148437 28.488282 26.347656 53.089844 51.25 69.28125 28.417968 18.480469 64.476562 41.785157 89.722656 58.078126 3.480469 2.242187 6.921875 2.710937 9.199219 2.710937 2.28125 0 5.726562-.46875 9.199219-2.710937 25.316406-16.339844 61.433593-39.679688 89.726562-58.078126 24.898438-16.1875 43.101562-40.792968 51.25-69.28125 15.484375-54.117187 24.050781-115.53125 28.511719-157.523437 2.769531-26.054687-12.347657-50.699219-36.765625-59.933594-3.871094-1.460937-8.203125.488281-9.667969 4.367188-1.464844 3.875.488281 8.203125 4.363281 9.667969 18.035156 6.820312 29.203125 25.042968 27.15625 44.3125-1.910156 17.945312-4.574218 39.484374-8.21875 62.449218h-59.433594c-3.648437-47.203125-41.425781-84.984375-88.621093-88.636718v-91.867188c22.199219 18.585938 55.371093 41.742188 100.925781 62.125zm-245.039062 11.617188c59.871093-22.640626 101.929687-50.953126 129.113281-73.734376v91.863282c-47.191407 3.648437-84.96875 41.433594-88.617188 88.632812h-59.433593c-3.644532-22.964844-6.3125-44.5-8.21875-62.449218-2.046876-19.269532 9.117187-37.492188 27.15625-44.3125zm204.246093 69c8.472657 12.621093 13.492188 27.734374 13.746094 43.988281l-11.058594-12.308594c-3.546875-3.921875-5.25-9.191406-4.683593-14.40625zm-8.457031 41.726562 20.03125 22.289062c-1.242188 5.257813-2.996094 10.316407-5.207031 15.125l-28.628907 6.015626c-9.597656 2.015624-17.808593 8.101562-22.542968 16.726562l-13.136719 24.203125c-9.6875 1.480469-15.835937.40625-18.847656.070313l-13.691407-24.570313c-4.742187-8.433594-12.894531-14.410156-22.410156-16.402344l-28.628906-5.800781c-2.375-5.121094-4.226562-10.527344-5.5-16.15625l19.972656-21.425781c6.558594-7.101563 9.730469-16.6875 8.707032-26.308594l-3.332032-31.050781c3.585938-3.195313 7.449219-6.078125 11.5625-8.605469l28.765625 12.941406c4.339844 1.9375 14.5 6.320313 27.453125-.058593l28.585938-12.984376c4.265625 2.609376 8.273437 5.605469 11.980468 8.933594l-3.574218 30.925782c-1.042969 9.515624 2.039062 19.046874 8.441406 26.132812zm3.808594 55.0625c-8.828125 10.773438-20.363282 19.230469-33.546875 24.367188l6.558593-12.085938c2.605469-4.75 7.144532-8.117188 12.457032-9.230469zm-130.464844-97.023438 1.859375 17.320313c.566406 5.3125-1.191406 10.613281-4.789063 14.511719l-10.949218 11.746094c.375-16.105469 5.425781-31.078126 13.878906-43.578126zm38.453125 121.550782c-13.300781-5.097656-24.945313-13.574219-33.847656-24.394532l14.589843 2.957032c5.234376 1.09375 9.738282 4.398437 12.347657 9.035156zm36.589844-146.265625c-4.816407 2.167969-10.34375 2.179687-15.144531.035156l-16.742188-7.53125c7.6875-2.410156 24.324219-7.367187 48.496094-.050781zm-98.308594 216.078125c-21.867187-14.21875-37.851563-35.824219-45.007813-60.832032-7.183593-25.121093-12.855468-51.898437-17.304687-77.53125h56.941406c3.648438 47.199219 41.425781 84.984376 88.617188 88.632813v103.625c-24.675781-15.933594-57.179688-36.945313-83.246094-53.894531zm226.5-60.832032c-7.152344 25.007813-23.136719 46.613282-45.003906 60.832032-25.960938 16.878906-58.507813 37.917968-83.25 53.894531v-103.625c47.195312-3.648437 84.972656-41.433594 88.621093-88.632813h56.945313c-4.453125 25.632813-10.125 52.410157-17.3125 77.53125zm0 0"/><path d="m245.078125 235.441406-16.414063-11.929687c-5.773437-4.195313-13.53125-4.199219-19.304687 0l-16.417969 11.929687c-5.769531 4.195313-8.167968 11.574219-5.960937 18.359375l6.269531 19.300781c2.203125 6.785157 8.480469 11.347657 15.617188 11.347657h20.289062c7.136719 0 13.410156-4.558594 15.617188-11.347657l6.269531-19.300781h.003906c2.203125-6.789062-.195313-14.167969-5.96875-18.359375zm-8.300781 13.722656-6.269532 19.300782c-.191406.589844-.734374.984375-1.351562.984375h-20.289062c-.617188 0-1.160157-.394531-1.351563-.984375l-6.269531-19.300782c-.191406-.585937.015625-1.222656.515625-1.585937l16.414062-11.929687c.25-.179688.542969-.269532.835938-.269532s.585937.089844.835937.269532l16.414063 11.929687c.5.363281.707031 1 .515625 1.585937zm0 0"/></svg>